<svg width="136" height="36" viewBox="0 0 136 36" fill="none" xmlns="http://www.w3.org/2000/svg">
<rect width="136" height="36" rx="12" fill="#F9FAFB"/>
<path d="M21.0455 24H17.2784V12.3636H21.1648C22.3049 12.3636 23.2841 12.5966 24.1023 13.0625C24.9205 13.5246 25.5473 14.1894 25.983 15.0568C26.4223 15.9205 26.642 16.9564 26.642 18.1648C26.642 19.3769 26.4205 20.4186 25.9773 21.2898C25.5379 22.161 24.9015 22.8314 24.0682 23.3011C23.2348 23.767 22.2273 24 21.0455 24ZM19.0341 22.4659H20.9489C21.8352 22.4659 22.572 22.2992 23.1591 21.9659C23.7462 21.6288 24.1856 21.142 24.4773 20.5057C24.7689 19.8655 24.9148 19.0852 24.9148 18.1648C24.9148 17.2519 24.7689 16.4773 24.4773 15.8409C24.1894 15.2045 23.7595 14.7216 23.1875 14.392C22.6155 14.0625 21.9053 13.8977 21.0568 13.8977H19.0341V22.4659ZM32.3651 24.1761C31.5469 24.1761 30.8329 23.9886 30.223 23.6136C29.6132 23.2386 29.1397 22.714 28.8026 22.0398C28.4654 21.3655 28.2969 20.5777 28.2969 19.6761C28.2969 18.7708 28.4654 17.9792 28.8026 17.3011C29.1397 16.6231 29.6132 16.0966 30.223 15.7216C30.8329 15.3466 31.5469 15.1591 32.3651 15.1591C33.1832 15.1591 33.8973 15.3466 34.5071 15.7216C35.117 16.0966 35.5904 16.6231 35.9276 17.3011C36.2647 17.9792 36.4332 18.7708 36.4332 19.6761C36.4332 20.5777 36.2647 21.3655 35.9276 22.0398C35.5904 22.714 35.117 23.2386 34.5071 23.6136C33.8973 23.9886 33.1832 24.1761 32.3651 24.1761ZM32.3707 22.75C32.901 22.75 33.3404 22.6098 33.6889 22.3295C34.0374 22.0492 34.295 21.6761 34.4616 21.2102C34.6321 20.7443 34.7173 20.2311 34.7173 19.6705C34.7173 19.1136 34.6321 18.6023 34.4616 18.1364C34.295 17.6667 34.0374 17.2898 33.6889 17.0057C33.3404 16.7216 32.901 16.5795 32.3707 16.5795C31.8366 16.5795 31.3935 16.7216 31.0412 17.0057C30.6927 17.2898 30.4332 17.6667 30.2628 18.1364C30.0961 18.6023 30.0128 19.1136 30.0128 19.6705C30.0128 20.2311 30.0961 20.7443 30.2628 21.2102C30.4332 21.6761 30.6927 22.0492 31.0412 22.3295C31.3935 22.6098 31.8366 22.75 32.3707 22.75ZM39.956 24L37.3878 15.2727H39.1435L40.8537 21.6818H40.9389L42.6548 15.2727H44.4105L46.1151 21.6534H46.2003L47.8991 15.2727H49.6548L47.0923 24H45.3594L43.5866 17.6989H43.456L41.6832 24H39.956ZM52.9659 18.8182V24H51.267V15.2727H52.8977V16.6932H53.0057C53.2064 16.2311 53.5208 15.8598 53.9489 15.5795C54.3807 15.2992 54.9242 15.1591 55.5795 15.1591C56.1742 15.1591 56.6951 15.2841 57.142 15.5341C57.589 15.7803 57.9356 16.1477 58.1818 16.6364C58.428 17.125 58.5511 17.7292 58.5511 18.4489V24H56.8523V18.6534C56.8523 18.0208 56.6875 17.5265 56.358 17.1705C56.0284 16.8106 55.5758 16.6307 55 16.6307C54.6061 16.6307 54.2557 16.7159 53.9489 16.8864C53.6458 17.0568 53.4053 17.3068 53.2273 17.6364C53.053 17.9621 52.9659 18.3561 52.9659 18.8182ZM62.5284 12.3636V24H60.8295V12.3636H62.5284ZM68.4901 24.1761C67.6719 24.1761 66.9579 23.9886 66.348 23.6136C65.7382 23.2386 65.2647 22.714 64.9276 22.0398C64.5904 21.3655 64.4219 20.5777 64.4219 19.6761C64.4219 18.7708 64.5904 17.9792 64.9276 17.3011C65.2647 16.6231 65.7382 16.0966 66.348 15.7216C66.9579 15.3466 67.6719 15.1591 68.4901 15.1591C69.3082 15.1591 70.0223 15.3466 70.6321 15.7216C71.242 16.0966 71.7154 16.6231 72.0526 17.3011C72.3897 17.9792 72.5582 18.7708 72.5582 19.6761C72.5582 20.5777 72.3897 21.3655 72.0526 22.0398C71.7154 22.714 71.242 23.2386 70.6321 23.6136C70.0223 23.9886 69.3082 24.1761 68.4901 24.1761ZM68.4957 22.75C69.026 22.75 69.4654 22.6098 69.8139 22.3295C70.1624 22.0492 70.42 21.6761 70.5866 21.2102C70.7571 20.7443 70.8423 20.2311 70.8423 19.6705C70.8423 19.1136 70.7571 18.6023 70.5866 18.1364C70.42 17.6667 70.1624 17.2898 69.8139 17.0057C69.4654 16.7216 69.026 16.5795 68.4957 16.5795C67.9616 16.5795 67.5185 16.7216 67.1662 17.0057C66.8177 17.2898 66.5582 17.6667 66.3878 18.1364C66.2211 18.6023 66.1378 19.1136 66.1378 19.6705C66.1378 20.2311 66.2211 20.7443 66.3878 21.2102C66.5582 21.6761 66.8177 22.0492 67.1662 22.3295C67.5185 22.6098 67.9616 22.75 68.4957 22.75ZM76.9943 24.1932C76.4413 24.1932 75.9413 24.0909 75.4943 23.8864C75.0473 23.678 74.6932 23.3769 74.4318 22.983C74.1742 22.589 74.0455 22.1061 74.0455 21.5341C74.0455 21.0417 74.1402 20.6364 74.3295 20.3182C74.5189 20 74.7746 19.7481 75.0966 19.5625C75.4186 19.3769 75.7784 19.2367 76.1761 19.142C76.5739 19.0473 76.9792 18.9754 77.392 18.9261C77.9148 18.8655 78.339 18.8163 78.6648 18.7784C78.9905 18.7367 79.2273 18.6705 79.375 18.5795C79.5227 18.4886 79.5966 18.3409 79.5966 18.1364V18.0966C79.5966 17.6004 79.4564 17.2159 79.1761 16.9432C78.8996 16.6705 78.4867 16.5341 77.9375 16.5341C77.3655 16.5341 76.9148 16.661 76.5852 16.9148C76.2595 17.1648 76.0341 17.4432 75.9091 17.75L74.3125 17.3864C74.5019 16.8561 74.7784 16.428 75.142 16.1023C75.5095 15.7727 75.9318 15.5341 76.4091 15.3864C76.8864 15.2348 77.3883 15.1591 77.9148 15.1591C78.2633 15.1591 78.6326 15.2008 79.0227 15.2841C79.4167 15.3636 79.7841 15.5114 80.125 15.7273C80.4697 15.9432 80.7519 16.2519 80.9716 16.6534C81.1913 17.0511 81.3011 17.5682 81.3011 18.2045V24H79.642V22.8068H79.5739C79.464 23.0265 79.2992 23.2424 79.0795 23.4545C78.8598 23.6667 78.5777 23.8428 78.233 23.983C77.8883 24.1231 77.4754 24.1932 76.9943 24.1932ZM77.3636 22.8295C77.8333 22.8295 78.2348 22.7367 78.5682 22.5511C78.9053 22.3655 79.161 22.1231 79.3352 21.8239C79.5133 21.5208 79.6023 21.197 79.6023 20.8523V19.7273C79.5417 19.7879 79.4242 19.8447 79.25 19.8977C79.0795 19.947 78.8845 19.9905 78.6648 20.0284C78.4451 20.0625 78.2311 20.0947 78.0227 20.125C77.8144 20.1515 77.6402 20.1742 77.5 20.1932C77.1705 20.2348 76.8693 20.3049 76.5966 20.4034C76.3277 20.5019 76.1117 20.6439 75.9489 20.8295C75.7898 21.0114 75.7102 21.2538 75.7102 21.5568C75.7102 21.9773 75.8655 22.2955 76.1761 22.5114C76.4867 22.7235 76.8826 22.8295 77.3636 22.8295ZM86.831 24.1705C86.1264 24.1705 85.4976 23.9905 84.9446 23.6307C84.3954 23.267 83.9635 22.75 83.6491 22.0795C83.3385 21.4053 83.1832 20.5966 83.1832 19.6534C83.1832 18.7102 83.3404 17.9034 83.6548 17.233C83.973 16.5625 84.4086 16.0492 84.9616 15.6932C85.5147 15.3371 86.1416 15.1591 86.8423 15.1591C87.384 15.1591 87.8196 15.25 88.1491 15.4318C88.4825 15.6098 88.7401 15.8182 88.9219 16.0568C89.1075 16.2955 89.2514 16.5057 89.3537 16.6875H89.456V12.3636H91.1548V24H89.4957V22.642H89.3537C89.2514 22.8277 89.1037 23.0398 88.9105 23.2784C88.7211 23.517 88.4598 23.7254 88.1264 23.9034C87.7931 24.0814 87.3613 24.1705 86.831 24.1705ZM87.206 22.7216C87.6946 22.7216 88.1075 22.5928 88.4446 22.3352C88.7855 22.0739 89.0431 21.7121 89.2173 21.25C89.3954 20.7879 89.4844 20.25 89.4844 19.6364C89.4844 19.0303 89.3973 18.5 89.223 18.0455C89.0488 17.5909 88.7931 17.2367 88.456 16.983C88.1188 16.7292 87.7022 16.6023 87.206 16.6023C86.6946 16.6023 86.2685 16.7348 85.9276 17C85.5866 17.2652 85.3291 17.6269 85.1548 18.0852C84.9844 18.5436 84.8991 19.0606 84.8991 19.6364C84.8991 20.2197 84.9863 20.7443 85.1605 21.2102C85.3348 21.6761 85.5923 22.0455 85.9332 22.3182C86.2779 22.5871 86.7022 22.7216 87.206 22.7216ZM107.615 16.1477H105.842C105.774 15.7689 105.647 15.4356 105.462 15.1477C105.276 14.8598 105.049 14.6155 104.78 14.4148C104.511 14.214 104.21 14.0625 103.876 13.9602C103.547 13.858 103.196 13.8068 102.825 13.8068C102.155 13.8068 101.554 13.9754 101.024 14.3125C100.498 14.6496 100.081 15.1439 99.7741 15.7955C99.4711 16.447 99.3196 17.2424 99.3196 18.1818C99.3196 19.1288 99.4711 19.928 99.7741 20.5795C100.081 21.2311 100.5 21.7235 101.03 22.0568C101.56 22.3902 102.157 22.5568 102.82 22.5568C103.187 22.5568 103.536 22.5076 103.865 22.4091C104.198 22.3068 104.5 22.1572 104.768 21.9602C105.037 21.7633 105.265 21.5227 105.45 21.2386C105.64 20.9508 105.77 20.6212 105.842 20.25L107.615 20.2557C107.52 20.8277 107.337 21.3542 107.064 21.8352C106.795 22.3125 106.448 22.7254 106.024 23.0739C105.604 23.4186 105.123 23.6856 104.581 23.875C104.039 24.0644 103.448 24.1591 102.808 24.1591C101.801 24.1591 100.903 23.9205 100.115 23.4432C99.3272 22.9621 98.706 22.2746 98.2514 21.3807C97.8007 20.4867 97.5753 19.4205 97.5753 18.1818C97.5753 16.9394 97.8026 15.8731 98.2571 14.983C98.7116 14.089 99.3329 13.4034 100.121 12.9261C100.909 12.4451 101.804 12.2045 102.808 12.2045C103.426 12.2045 104.001 12.2936 104.536 12.4716C105.073 12.6458 105.556 12.9034 105.984 13.2443C106.412 13.5814 106.767 13.9943 107.047 14.483C107.327 14.9678 107.517 15.5227 107.615 16.1477ZM110.733 12.3636L113.972 21.8409H114.102L117.341 12.3636H119.239L115.051 24H113.023L108.835 12.3636H110.733Z" fill="#111827"/>
</svg>
